<svg xmlns="http://www.w3.org/2000/svg" xmlns:xlink="http://www.w3.org/1999/xlink" version="1.1" style="enable-background:new 0 0 510.604 510.604;" xml:space="preserve" width="510.604" height="510.604"><rect id="backgroundrect" width="100%" height="100%" x="0" y="0" fill="none" stroke="none"/>
















<g class="currentLayer" style=""><title>Layer 1</title><g id="svg_1" class="selected" fill-opacity="1" fill="#f20909">
	<g id="svg_2" fill="#f20909">
		<path d="M476.033,70.043c-34.287-36.71-71.791-55.322-111.479-55.322c-45.047,0-85.666,27.46-109.457,72.832    c-23.723-45.372-64.043-72.832-108.638-72.832c-39.484,0-75.93,18.074-111.411,55.253    C-5.632,112.616-22.886,210.766,50.526,284.17c34.867,34.867,197.188,203.622,198.827,205.321l6.153,6.391l6.153-6.391    c1.638-1.698,163.968-170.453,198.835-205.321C533.197,211.475,516.233,113.111,476.033,70.043z M471.348,195.935    c-0.649,2.893-1.374,5.948-2.167,9.148c-0.964,3.891-4.446,6.485-8.277,6.485c-0.683,0-1.365-0.085-2.057-0.247    c-4.574-1.135-7.364-5.768-6.229-10.334c0.768-3.089,1.459-6.025,2.082-8.789c7.45-33.246-5.495-72.823-30.797-94.097    c-12.996-10.931-29.38-15.59-54.775-15.59c-4.719,0-8.533-3.814-8.533-8.533s3.814-8.533,8.533-8.533    c29.756,0,49.425,5.862,65.758,19.593C464.786,110.175,480.12,156.819,471.348,195.935z" id="svg_3" fill="#FF0008"/>
	</g>
</g><g id="svg_4">
</g><g id="svg_5">
</g><g id="svg_6">
</g><g id="svg_7">
</g><g id="svg_8">
</g><g id="svg_9">
</g><g id="svg_10">
</g><g id="svg_11">
</g><g id="svg_12">
</g><g id="svg_13">
</g><g id="svg_14">
</g><g id="svg_15">
</g><g id="svg_16">
</g><g id="svg_17">
</g><g id="svg_18">
</g></g></svg>