<svg xmlns="http://www.w3.org/2000/svg" xmlns:xlink="http://www.w3.org/1999/xlink" version="1.1" style="enable-background:new 0 0 511.981 511.981;" xml:space="preserve" width="511.981" height="511.981"><rect id="backgroundrect" width="100%" height="100%" x="0" y="0" fill="none" stroke="none"/>
















<g class="currentLayer" style=""><title>Layer 1</title><g id="svg_1">
	<g id="svg_2">
		<path d="M441.222,181.869L277.808,8.566C265.273-2.92,246.363-2.92,233.418,8.958L68.434,181.46    c-46.225,42.872-55.902,108.194-24.653,166.391c22.34,41.609,64.623,68.548,110.362,70.298    c29.005,1.246,42.317-7.91,59.008-23.202v24.9c0,14.131-3.703,28.083-10.718,40.354L187.44,486.45    c-3.055,5.35-3.038,11.716,0.051,17.033c3.089,5.325,8.61,8.499,14.763,8.499h107.127c6.153,0,11.665-3.174,14.754-8.499    c3.089-5.316,3.115-11.682,0.06-17.033l-15.002-26.249c-7.006-12.271-10.709-26.214-10.709-40.354v-24.593    c14.814,14.208,26.931,24.081,56.977,22.886c44.706-1.835,86.775-26.65,109.773-64.759    C507.875,282.742,478.734,216.626,441.222,181.869z M436.016,335.751c-10.206,16.905-25.293,30.37-43.639,38.904    c-12.186,5.683-25.079,8.841-38.315,9.378c-0.119,0.009-0.239,0.009-0.358,0.009c-4.548,0-8.328-3.593-8.516-8.183    c-0.196-4.71,3.465-8.678,8.175-8.875c10.965-0.452,21.675-3.072,31.812-7.799c15.036-7.006,27.904-18.458,36.233-32.247    c14.857-24.619,16.794-50.244,5.76-76.16c-1.843-4.335,0.171-9.353,4.506-11.196c4.335-1.843,9.353,0.179,11.196,4.514    C455.984,274.9,453.62,306.593,436.016,335.751z" id="svg_3"/>
	</g>
</g><g id="svg_4">
</g><g id="svg_5">
</g><g id="svg_6">
</g><g id="svg_7">
</g><g id="svg_8">
</g><g id="svg_9">
</g><g id="svg_10">
</g><g id="svg_11">
</g><g id="svg_12">
</g><g id="svg_13">
</g><g id="svg_14">
</g><g id="svg_15">
</g><g id="svg_16">
</g><g id="svg_17">
</g><g id="svg_18">
</g></g></svg>