<svg xmlns="http://www.w3.org/2000/svg" xmlns:xlink="http://www.w3.org/1999/xlink" version="1.1" style="enable-background:new 0 0 512.025 512.025;" xml:space="preserve" width="512.025" height="512.025"><rect id="backgroundrect" width="100%" height="100%" x="0" y="0" fill="none" stroke="none"/>
















<g class="currentLayer" style=""><title>Layer 1</title><g id="svg_1">
	<g id="svg_2">
		<path d="M490.309,302.149c-0.599-45.846-29.167-88.576-72.808-108.848c-18.449-8.574-37.081-12.14-56.45-10.795    c11.845-20.324,17.556-43.702,16.28-67.61C374.016,52.9,322.816,2.49,260.768,0.112c-33.575-1.423-64.998,10.761-89.001,33.861    c-24.021,23.118-37.246,54.211-37.246,87.543c0,21.495,5.754,42.557,16.462,60.989c-19.369-1.354-38.009,2.222-56.468,10.795    c-43.633,20.272-72.209,63.002-72.799,108.848c-0.425,32.768,12.019,63.644,35.016,86.953    c23.005,23.3,53.708,36.144,86.467,36.144c25.079,0,49.152-7.663,69.424-21.86v14.883c0,14.405-3.784,28.637-10.926,41.142    l-15.23,26.641c-3.098,5.441-3.081,11.915,0.061,17.33s8.756,8.643,15.013,8.643h108.935c6.266,0,11.871-3.228,15.022-8.643    c3.141-5.415,3.159-11.889,0.052-17.33l-15.221-26.641c-7.151-12.505-10.926-26.737-10.926-41.142v-14.883    c20.272,14.197,44.336,21.86,69.424,21.86c32.751,0,63.453-12.843,86.467-36.144C478.29,365.793,490.734,334.917,490.309,302.149z     M430.587,364.717c-16.436,16.644-38.374,25.817-61.761,25.817c-4.799,0-8.678-3.888-8.678-8.678c0-4.799,3.879-8.678,8.678-8.678    c18.71,0,36.265-7.342,49.404-20.654c13.147-13.312,20.254-30.963,20.011-49.707c-0.061-4.79,3.766-8.73,8.565-8.791h0.113    c4.747,0,8.617,3.818,8.678,8.574C455.892,326.013,447.015,348.072,430.587,364.717z" id="svg_3"/>
	</g>
</g><g id="svg_4">
</g><g id="svg_5">
</g><g id="svg_6">
</g><g id="svg_7">
</g><g id="svg_8">
</g><g id="svg_9">
</g><g id="svg_10">
</g><g id="svg_11">
</g><g id="svg_12">
</g><g id="svg_13">
</g><g id="svg_14">
</g><g id="svg_15">
</g><g id="svg_16">
</g><g id="svg_17">
</g><g id="svg_18">
</g></g></svg>